<svg width="32" height="40" viewBox="0 0 32 40" fill="none" xmlns="http://www.w3.org/2000/svg">
<path d="M10.0556 21.7299H13.9403V16.348H17.825V21.7299H21.7096V12.4633L15.8826 8.57866L10.0556 12.4633V21.7299ZM15.8826 35.7998C19.9993 32.1147 23.1496 28.5801 25.3334 25.1958C27.5172 21.8115 28.6091 18.8474 28.6091 16.3035C28.6091 12.4674 27.3904 9.31374 24.953 6.84264C22.5156 4.37155 19.4922 3.136 15.8826 3.136C12.2731 3.136 9.24966 4.37155 6.81229 6.84264C4.37492 9.31374 3.15623 12.4674 3.15623 16.3035C3.15623 18.8474 4.24813 21.8115 6.43193 25.1958C8.61572 28.5801 11.766 32.1147 15.8826 35.7998ZM15.8826 40C10.5871 35.4112 6.61608 31.1408 3.96965 27.1887C1.32322 23.2365 0 19.6082 0 16.3035C0 11.4477 1.57073 7.51645 4.71218 4.50987C7.85364 1.50329 11.5771 0 15.8826 0C20.1882 0 23.9116 1.50329 27.0531 4.50987C30.1946 7.51645 31.7653 11.4477 31.7653 16.3035C31.7653 19.6082 30.4421 23.2365 27.7956 27.1887C25.1492 31.1408 21.1782 35.4112 15.8826 40Z" fill="#30C5FF"/>
</svg>
