<svg width="27" height="27" viewBox="0 0 27 27" fill="none" xmlns="http://www.w3.org/2000/svg">
<path d="M15.0178 17.989C15.242 18.092 15.4947 18.1155 15.7341 18.0557C15.9735 17.9959 16.1854 17.8563 16.3349 17.66L16.7203 17.1551C16.9226 16.8854 17.1849 16.6665 17.4864 16.5157C17.7879 16.365 18.1204 16.2865 18.4575 16.2865H21.7149C22.2908 16.2865 22.8431 16.5153 23.2504 16.9225C23.6576 17.3298 23.8864 17.8821 23.8864 18.458V21.7154C23.8864 22.2913 23.6576 22.8436 23.2504 23.2509C22.8431 23.6581 22.2908 23.8869 21.7149 23.8869C16.5315 23.8869 11.5604 21.8278 7.8952 18.1626C4.22999 14.4974 2.1709 9.52632 2.1709 4.34294C2.1709 3.76701 2.39969 3.21466 2.80693 2.80742C3.21418 2.40017 3.76652 2.17139 4.34245 2.17139H7.59978C8.17571 2.17139 8.72805 2.40017 9.1353 2.80742C9.54254 3.21466 9.77133 3.76701 9.77133 4.34294V7.60027C9.77133 7.93739 9.69284 8.26988 9.54208 8.57142C9.39131 8.87295 9.17241 9.13524 8.90271 9.33751L8.39457 9.71862C8.19524 9.87082 8.05474 10.0873 7.99695 10.3314C7.93915 10.5754 7.96762 10.8319 8.07752 11.0574C9.56143 14.0713 12.002 16.5088 15.0178 17.989Z" stroke="white" stroke-width="2.17155" stroke-linecap="round" stroke-linejoin="round"/>
</svg>
