<svg width="22" height="25" viewBox="0 0 22 25" fill="none" xmlns="http://www.w3.org/2000/svg">
<path d="M10.7386 25L7.21575 21.4772H2.28376C1.6456 21.4772 1.10544 21.2561 0.663262 20.8139C0.221088 20.3717 0 19.8316 0 19.1934V2.28376C0 1.6456 0.221088 1.10544 0.663262 0.663263C1.10544 0.221088 1.6456 0 2.28376 0H19.1934C19.8316 0 20.3717 0.221088 20.8139 0.663263C21.2561 1.10544 21.4772 1.6456 21.4772 2.28376V19.1934C21.4772 19.8316 21.2561 20.3717 20.8139 20.8139C20.3717 21.2561 19.8316 21.4772 19.1934 21.4772H14.2614L10.7386 25ZM1.89501 18.3723C3.03204 17.2563 4.35331 16.3772 5.85882 15.735C7.36434 15.0928 8.99092 14.7717 10.7386 14.7717C12.4862 14.7717 14.1128 15.0928 15.6183 15.735C17.1239 16.3772 18.4451 17.2563 19.5822 18.3723V2.28376C19.5822 2.18657 19.5417 2.09748 19.4607 2.01649C19.3797 1.9355 19.2906 1.89501 19.1934 1.89501H2.28376C2.18657 1.89501 2.09748 1.9355 2.01649 2.01649C1.9355 2.09748 1.89501 2.18657 1.89501 2.28376V18.3723ZM10.7386 12.0505C11.8788 12.0505 12.8482 11.6513 13.6467 10.8528C14.4453 10.0543 14.8445 9.08489 14.8445 7.94462C14.8445 6.80436 14.4453 5.83497 13.6467 5.03646C12.8482 4.23795 11.8788 3.8387 10.7386 3.8387C9.59832 3.8387 8.62893 4.23795 7.83042 5.03646C7.03191 5.83497 6.63266 6.80436 6.63266 7.94462C6.63266 9.08489 7.03191 10.0543 7.83042 10.8528C8.62893 11.6513 9.59832 12.0505 10.7386 12.0505ZM3.71712 19.5822H17.76C17.76 19.5271 17.76 19.4826 17.76 19.4485C17.76 19.4145 17.76 19.37 17.76 19.3149C16.7623 18.4241 15.6678 17.76 14.4765 17.3227C13.2852 16.8853 12.0392 16.6667 10.7386 16.6667C9.45415 16.6667 8.21426 16.8833 7.01891 17.3166C5.82356 17.7499 4.72296 18.4079 3.71712 19.2906C3.71712 19.3457 3.71712 19.3943 3.71712 19.4364C3.71712 19.4785 3.71712 19.5271 3.71712 19.5822ZM10.7386 10.1555C10.1312 10.1555 9.61085 9.9389 9.17758 9.50563C8.7443 9.07235 8.52767 8.55202 8.52767 7.94462C8.52767 7.33723 8.7443 6.81689 9.17758 6.38362C9.61085 5.95034 10.1312 5.73371 10.7386 5.73371C11.346 5.73371 11.8663 5.95034 12.2996 6.38362C12.7329 6.81689 12.9495 7.33723 12.9495 7.94462C12.9495 8.55202 12.7329 9.07235 12.2996 9.50563C11.8663 9.9389 11.346 10.1555 10.7386 10.1555Z" fill="#30C5FF"/>
</svg>
