<svg width="31" height="25" viewBox="0 0 31 25" fill="none" xmlns="http://www.w3.org/2000/svg">
<path d="M0 25V21.7889C0 21.0778 0.18611 20.4241 0.558331 19.8278C0.930551 19.2316 1.44999 18.7667 2.11666 18.4334C3.31666 17.826 4.65925 17.3242 6.14444 16.9279C7.62962 16.5316 9.19258 16.3334 10.8333 16.3334C12.474 16.3334 14.037 16.5316 15.5222 16.9279C17.0074 17.3242 18.35 17.826 19.55 18.4334C20.2166 18.7667 20.7361 19.2316 21.1083 19.8278C21.4805 20.4241 21.6666 21.0778 21.6666 21.7889V25H0ZM2.16662 22.8334H19.5V21.7889C19.5 21.4593 19.4106 21.1769 19.2319 20.9417C19.0532 20.7065 18.8278 20.5148 18.5555 20.3667C17.6703 19.9148 16.5477 19.4908 15.1875 19.0945C13.8273 18.6982 12.3759 18.5 10.8333 18.5C9.29073 18.5 7.83934 18.6982 6.47915 19.0945C5.11896 19.4908 3.99627 19.9148 3.11108 20.3667C2.83886 20.5148 2.61339 20.7065 2.43468 20.9417C2.25597 21.1769 2.16662 21.4593 2.16662 21.7889V22.8334ZM10.8333 14C9.42036 14 8.22453 13.5107 7.24584 12.532C6.26714 11.5533 5.77779 10.3297 5.77779 8.86115H5.44446C5.25557 8.86115 5.10187 8.80189 4.98335 8.68337C4.86484 8.56486 4.80558 8.41115 4.80558 8.22227C4.80558 8.03338 4.86484 7.87968 4.98335 7.76116C5.10187 7.64264 5.25557 7.58338 5.44446 7.58338H5.77779C5.79631 6.67598 6.00557 5.85609 6.40556 5.12369C6.80555 4.39129 7.37406 3.76305 8.11109 3.23897V4.6112C8.11109 4.80009 8.17035 4.95379 8.28887 5.07231C8.40739 5.19082 8.56109 5.25008 8.74998 5.25008C8.93887 5.25008 9.09257 5.19082 9.21109 5.07231C9.3296 4.95379 9.38886 4.80009 9.38886 4.6112V2.68897C9.59627 2.61675 9.82266 2.55795 10.068 2.51258C10.3134 2.46721 10.5685 2.44452 10.8333 2.44452C11.0981 2.44452 11.3532 2.46721 11.5986 2.51258C11.844 2.55795 12.0704 2.61675 12.2778 2.68897V4.6112C12.2778 4.80009 12.337 4.95379 12.4555 5.07231C12.5741 5.19082 12.7278 5.25008 12.9166 5.25008C13.1055 5.25008 13.2592 5.19082 13.3778 5.07231C13.4963 4.95379 13.5555 4.80009 13.5555 4.6112V3.23897C14.3018 3.76305 14.8726 4.39129 15.268 5.12369C15.6634 5.85609 15.8703 6.67598 15.8888 7.58338H16.2222C16.411 7.58338 16.5648 7.64264 16.6833 7.76116C16.8018 7.87968 16.861 8.03338 16.861 8.22227C16.861 8.41115 16.8018 8.56486 16.6833 8.68337C16.5648 8.80189 16.411 8.86115 16.2222 8.86115H15.8888C15.8888 10.3297 15.3995 11.5533 14.4208 12.532C13.4421 13.5107 12.2463 14 10.8333 14ZM10.8333 11.8334C11.6463 11.8334 12.331 11.5551 12.8875 10.9987C13.444 10.4422 13.7222 9.75746 13.7222 8.94449H7.94441C7.94441 9.75746 8.22266 10.4422 8.77914 10.9987C9.33562 11.5551 10.0203 11.8334 10.8333 11.8334ZM21.6945 16.8056L21.5333 15.75C21.3704 15.7019 21.2065 15.6361 21.0417 15.5528C20.8769 15.4694 20.7296 15.363 20.6 15.2333L19.6167 15.6222L18.9778 14.4889L19.8 13.8222C19.7815 13.7315 19.7722 13.6454 19.7722 13.5639C19.7722 13.4824 19.7722 13.3963 19.7722 13.3056C19.7722 13.2148 19.7722 13.131 19.7722 13.0542C19.7722 12.9773 19.7815 12.8889 19.8 12.7889L18.9778 12.1222L19.6167 10.9889L20.6 11.3778C20.7148 11.263 20.8583 11.1602 21.0306 11.0695C21.2028 10.9787 21.3704 10.9093 21.5333 10.8611L21.6945 9.80556H22.9722L23.1333 10.8611C23.2963 10.9093 23.4639 10.9787 23.6361 11.0695C23.8083 11.1602 23.9519 11.263 24.0667 11.3778L25.05 10.9889L25.6889 12.1222L24.8667 12.7889C24.8852 12.8889 24.8944 12.9773 24.8944 13.0542C24.8944 13.131 24.8944 13.2148 24.8944 13.3056C24.8944 13.3963 24.8944 13.4824 24.8944 13.5639C24.8944 13.6454 24.8852 13.7315 24.8667 13.8222L25.6889 14.4889L25.05 15.6222L24.0667 15.2333C23.937 15.363 23.7898 15.4694 23.625 15.5528C23.4602 15.6361 23.2963 15.7019 23.1333 15.75L22.9722 16.8056H21.6945ZM22.3333 14.5C22.6593 14.5 22.9398 14.3824 23.175 14.1472C23.4102 13.9121 23.5278 13.6315 23.5278 13.3056C23.5278 12.9796 23.4102 12.6991 23.175 12.4639C22.9398 12.2287 22.6593 12.1111 22.3333 12.1111C22.0074 12.1111 21.7269 12.2287 21.4917 12.4639C21.2565 12.6991 21.1389 12.9796 21.1389 13.3056C21.1389 13.6315 21.2565 13.9121 21.4917 14.1472C21.7269 14.3824 22.0074 14.5 22.3333 14.5ZM25.1 9.27774L24.8945 7.95553C24.65 7.89257 24.4074 7.79303 24.1667 7.65692C23.9259 7.5208 23.7241 7.35738 23.5611 7.16663L22.2667 7.64441L21.45 6.24443L22.5389 5.35555C22.4908 5.22592 22.4621 5.10647 22.4528 4.99721C22.4435 4.88795 22.4389 4.7685 22.4389 4.63887C22.4389 4.50924 22.4435 4.38979 22.4528 4.28053C22.4621 4.17127 22.4908 4.05182 22.5389 3.92219L21.45 3.03332L22.2667 1.63334L23.5611 2.11111C23.7241 1.92037 23.9259 1.75694 24.1667 1.62083C24.4074 1.48471 24.65 1.38517 24.8945 1.32221L25.1 0H26.7333L26.9389 1.32221C27.1833 1.38517 27.4259 1.48471 27.6667 1.62083C27.9074 1.75694 28.1093 1.92037 28.2722 2.11111L29.5667 1.63334L30.3833 3.03332L29.2944 3.92219C29.3426 4.05182 29.3713 4.17127 29.3806 4.28053C29.3898 4.38979 29.3944 4.50924 29.3944 4.63887C29.3944 4.7685 29.3898 4.88795 29.3806 4.99721C29.3713 5.10647 29.3426 5.22592 29.2944 5.35555L30.3833 6.24443L29.5667 7.64441L28.2722 7.16663C28.1093 7.35738 27.9074 7.5208 27.6667 7.65692C27.4259 7.79303 27.1833 7.89257 26.9389 7.95553L26.7333 9.27774H25.1ZM25.9167 6.52777C26.45 6.52777 26.8982 6.34629 27.2611 5.98332C27.6241 5.62036 27.8056 5.17221 27.8056 4.63887C27.8056 4.10553 27.6241 3.65738 27.2611 3.29442C26.8982 2.93145 26.45 2.74997 25.9167 2.74997C25.3833 2.74997 24.9352 2.93145 24.5722 3.29442C24.2093 3.65738 24.0278 4.10553 24.0278 4.63887C24.0278 5.17221 24.2093 5.62036 24.5722 5.98332C24.9352 6.34629 25.3833 6.52777 25.9167 6.52777Z" fill="#30C5FF"/>
</svg>
