<svg width="74" height="20" viewBox="0 0 74 20" fill="none" xmlns="http://www.w3.org/2000/svg">
<path d="M7.34342 5.18229C8.93197 5.18229 10.2818 5.73351 11.3929 6.83594C12.5127 7.93837 13.0726 9.27517 13.0726 10.8464V18.6589H9.86947V11.6536C9.86947 10.6988 9.54394 9.88281 8.8929 9.20573C8.24186 8.52864 7.45627 8.1901 6.53613 8.1901C5.61599 8.1901 4.8304 8.52864 4.17936 9.20573C3.52832 9.88281 3.2028 10.6988 3.2028 11.6536V18.6719H-0.000325698V-1.2666e-07H3.2028V6.91406C3.73231 6.36719 4.35297 5.94184 5.06478 5.63802C5.78526 5.3342 6.54481 5.18229 7.34342 5.18229ZM26.4554 5.44271H29.6585V18.6719H26.4554V17.0573C25.2575 18.3073 23.8165 18.9323 22.1325 18.9323C20.9953 18.9323 19.945 18.6285 18.9814 18.0208C18.0179 17.4045 17.2584 16.5712 16.7028 15.5208C16.1472 14.4618 15.8695 13.3116 15.8695 12.0703C15.8695 10.8203 16.1472 9.6658 16.7028 8.60677C17.2584 7.54774 18.0179 6.71441 18.9814 6.10677C19.945 5.49045 20.9953 5.18229 22.1325 5.18229C23.8078 5.18229 25.2488 5.81163 26.4554 7.07031V5.44271ZM20.1533 14.8047C20.8825 15.5512 21.7636 15.9245 22.7965 15.9245C23.8295 15.9245 24.7106 15.5512 25.4398 14.8047C26.1689 14.0495 26.5335 13.138 26.5335 12.0703C26.5335 10.9939 26.1689 10.0781 25.4398 9.32292C24.7106 8.56771 23.8295 8.1901 22.7965 8.1901C21.7636 8.1901 20.8825 8.56771 20.1533 9.32292C19.4328 10.0781 19.0726 10.9939 19.0726 12.0703C19.0726 13.138 19.4328 14.0495 20.1533 14.8047ZM42.0387 15.3255L42.9502 18.125C41.8478 18.6545 40.728 18.9323 39.5908 18.9583C38.4623 18.9931 37.4337 18.737 36.5049 18.1901C35.1854 17.3568 34.5257 16.0851 34.5257 14.375V8.46354H31.9346V5.44271H34.5257V1.70573H37.7288V5.44271H41.8044V8.46354H37.7288V14.0104C37.7288 14.809 37.9459 15.3385 38.3799 15.599C38.8573 15.842 39.4042 15.9332 40.0205 15.8724C40.6455 15.8116 41.3182 15.6293 42.0387 15.3255ZM51.8799 15.8984C52.5309 15.8984 53.1603 15.7335 53.7679 15.4036C54.3755 15.0738 54.8703 14.6571 55.2523 14.1536L57.4398 16.1719C56.7974 17.0226 55.9901 17.691 55.0179 18.1771C54.0457 18.6632 52.9997 18.9062 51.8799 18.9062C50.6212 18.9062 49.458 18.6024 48.3903 17.9948C47.3313 17.3785 46.4936 16.5451 45.8773 15.4948C45.261 14.4358 44.9528 13.2856 44.9528 12.0443C44.9528 10.803 45.261 9.65712 45.8773 8.60677C46.4936 7.54774 47.3313 6.71441 48.3903 6.10677C49.458 5.49045 50.6212 5.18229 51.8799 5.18229C52.9997 5.18229 54.0457 5.42969 55.0179 5.92448C55.9901 6.41059 56.7974 7.07899 57.4398 7.92969L55.2523 9.93489C54.8703 9.43142 54.3755 9.01476 53.7679 8.68489C53.1603 8.35503 52.5309 8.1901 51.8799 8.1901C50.8643 8.1901 49.9875 8.56771 49.2497 9.32292C48.5205 10.0781 48.1559 10.9852 48.1559 12.0443C48.1559 13.1033 48.5205 14.0104 49.2497 14.7656C49.9875 15.5208 50.8643 15.8984 51.8799 15.8984ZM67.5674 5.18229C69.1559 5.18229 70.5057 5.73351 71.6169 6.83594C72.7366 7.93837 73.2965 9.27517 73.2965 10.8464V18.6589H70.0934V11.6536C70.0934 10.6988 69.7679 9.88281 69.1169 9.20573C68.4658 8.52864 67.6802 8.1901 66.7601 8.1901C65.8399 8.1901 65.0544 8.52864 64.4033 9.20573C63.7523 9.88281 63.4268 10.6988 63.4268 11.6536V18.6719H60.2236V-1.2666e-07H63.4268V6.91406C63.9563 6.36719 64.5769 5.94184 65.2887 5.63802C66.0092 5.3342 66.7688 5.18229 67.5674 5.18229Z" fill="white"/>
</svg>
