<svg width="30" height="17" viewBox="0 0 30 17" fill="none" xmlns="http://www.w3.org/2000/svg">
<path d="M0 16.25V14.3597C0 13.328 0.453177 12.4807 1.35953 11.8178C2.26588 11.1549 3.44732 10.8234 4.90384 10.8234C5.14464 10.8234 5.38711 10.8323 5.63126 10.8502C5.87541 10.8681 6.12123 10.9029 6.36872 10.9546C6.11454 11.4376 5.926 11.939 5.80309 12.4588C5.68018 12.9786 5.61873 13.5119 5.61873 14.0585V16.25H0ZM7.82611 16.25V14.1181C7.82611 13.3922 7.99752 12.7287 8.34032 12.1276C8.68313 11.5265 9.17728 11.0023 9.82276 10.5551C10.4682 10.1078 11.2308 9.77237 12.1104 9.54874C12.99 9.32512 13.9515 9.21331 14.995 9.21331C16.0585 9.21331 17.0301 9.32512 17.9097 9.54874C18.7893 9.77237 19.5518 10.1078 20.1973 10.5551C20.8428 11.0023 21.3336 11.5265 21.6697 12.1276C22.0058 12.7287 22.1739 13.3922 22.1739 14.1181V16.25H7.82611ZM24.3813 16.25V14.0629C24.3813 13.4797 24.3232 12.9302 24.2069 12.4142C24.0907 11.8983 23.9164 11.4118 23.684 10.9546C23.9398 10.9029 24.1844 10.8681 24.4177 10.8502C24.6509 10.8323 24.8813 10.8234 25.1087 10.8234C26.5652 10.8234 27.7446 11.1509 28.6467 11.8059C29.5489 12.4608 30 13.3121 30 14.3597V16.25H24.3813ZM9.88292 13.9243H20.1371V13.7603C20.0034 13.1342 19.4482 12.6074 18.4716 12.18C17.495 11.7527 16.3378 11.539 15 11.539C13.6622 11.539 12.505 11.7527 11.5284 12.18C10.5518 12.6074 10.0033 13.1342 9.88292 13.7603V13.9243ZM4.90051 9.31765C4.28568 9.31765 3.76045 9.05781 3.32484 8.53813C2.88923 8.01846 2.67142 7.39374 2.67142 6.66398C2.67142 5.92453 2.89001 5.29988 3.32719 4.79002C3.76437 4.28016 4.28992 4.02523 4.90384 4.02523C5.52591 4.02523 6.05349 4.28016 6.4866 4.79002C6.91971 5.29988 7.13626 5.92602 7.13626 6.66843C7.13626 7.38901 6.922 8.01069 6.49348 8.53347C6.06496 9.05626 5.53397 9.31765 4.90051 9.31765ZM25.1087 9.31765C24.5 9.31765 23.9758 9.05626 23.536 8.53347C23.0962 8.01069 22.8763 7.38901 22.8763 6.66843C22.8763 5.92602 23.0962 5.29988 23.536 4.79002C23.9758 4.28016 24.5008 4.02523 25.1111 4.02523C25.7399 4.02523 26.2688 4.28016 26.6977 4.79002C27.1267 5.29988 27.3411 5.92453 27.3411 6.66398C27.3411 7.39374 27.1272 8.01846 26.6993 8.53813C26.2714 9.05781 25.7412 9.31765 25.1087 9.31765ZM15.0044 8.05045C14.065 8.05045 13.2651 7.65911 12.6045 6.87643C11.944 6.09375 11.6137 5.14334 11.6137 4.02523C11.6137 2.88475 11.943 1.92876 12.6014 1.15725C13.2598 0.385751 14.0594 0 15 0C15.9594 0 16.7637 0.385247 17.4127 1.15574C18.0617 1.92623 18.3863 2.88097 18.3863 4.01996C18.3863 5.13662 18.0622 6.08753 17.414 6.8727C16.7658 7.65787 15.9626 8.05045 15.0044 8.05045ZM15.0063 5.7248C15.4051 5.7248 15.7421 5.55882 16.0172 5.22685C16.2922 4.89489 16.4298 4.49186 16.4298 4.01777C16.4298 3.54368 16.2928 3.14314 16.0187 2.81615C15.7447 2.48915 15.4051 2.32566 15 2.32566C14.6053 2.32566 14.2684 2.48853 13.9891 2.81428C13.7099 3.14003 13.5702 3.54368 13.5702 4.02523C13.5702 4.49435 13.7099 4.89489 13.9891 5.22685C14.2684 5.55882 14.6074 5.7248 15.0063 5.7248Z" fill="#30C5FF"/>
</svg>
