<svg width="26" height="32" viewBox="0 0 26 32" fill="none" xmlns="http://www.w3.org/2000/svg">
<path d="M12.67 32C9.0163 31.0037 5.9912 28.8531 3.59472 25.548C1.19824 22.243 0 18.5481 0 14.4633V4.74314L12.67 0L25.3401 4.74314V14.4633C25.3401 18.5481 24.1418 22.243 21.7454 25.548C19.3489 28.8531 16.3238 31.0037 12.67 32ZM12.67 29.3296C15.5982 28.4005 18.0196 26.5422 19.9342 23.7548C21.8488 20.9673 22.8061 17.8702 22.8061 14.4633V6.48118L12.67 2.69639L2.53396 6.48118V14.4633C2.53396 17.8702 3.49126 20.9673 5.40585 23.7548C7.32044 26.5422 9.74184 28.4005 12.67 29.3296Z" fill="#30C5FF"/>
</svg>
