<svg width="30" height="30" viewBox="0 0 30 30" fill="none" xmlns="http://www.w3.org/2000/svg">
<path d="M15 27.1875C19.6875 20.625 23.4375 15 23.4375 11.25C23.4375 9.01224 22.5486 6.86612 20.9662 5.28379C19.3839 3.70145 17.2378 2.8125 15 2.8125C12.7622 2.8125 10.6161 3.70145 9.03379 5.28379C7.45145 6.86612 6.5625 9.01224 6.5625 11.25C6.5625 15 10.3125 20.625 15 27.1875Z" stroke="white" stroke-width="2"/>
<path d="M18.75 11.25C18.75 12.2446 18.3549 13.1984 17.6516 13.9017C16.9484 14.6049 15.9946 15 15 15C14.0054 15 13.0516 14.6049 12.3483 13.9017C11.6451 13.1984 11.25 12.2446 11.25 11.25C11.25 10.2554 11.6451 9.30161 12.3483 8.59835C13.0516 7.89509 14.0054 7.5 15 7.5C15.9946 7.5 16.9484 7.89509 17.6516 8.59835C18.3549 9.30161 18.75 10.2554 18.75 11.25Z" stroke="white" stroke-width="2"/>
</svg>
