<svg width="13" height="16" viewBox="0 0 13 16" fill="none" xmlns="http://www.w3.org/2000/svg">
<path d="M6.35306 7.88264C6.77282 7.88264 7.13134 7.734 7.42862 7.43672C7.7259 7.13943 7.87455 6.78091 7.87455 6.36115C7.87455 5.94139 7.7259 5.58287 7.42862 5.28559C7.13134 4.9883 6.77282 4.83966 6.35306 4.83966C5.9333 4.83966 5.57478 4.9883 5.27749 5.28559C4.98021 5.58287 4.83157 5.94139 4.83157 6.36115C4.83157 6.78091 4.98021 7.13943 5.27749 7.43672C5.57478 7.734 5.9333 7.88264 6.35306 7.88264ZM6.35306 14.3199C7.99973 12.8459 9.25982 11.432 10.1333 10.0783C11.0069 8.72461 11.4436 7.53897 11.4436 6.52139C11.4436 4.98694 10.9561 3.7255 9.9812 2.73706C9.00625 1.74862 7.79687 1.2544 6.35306 1.2544C4.90925 1.2544 3.69987 1.74862 2.72492 2.73706C1.74997 3.7255 1.26249 4.98694 1.26249 6.52139C1.26249 7.53897 1.69925 8.72461 2.57277 10.0783C3.44629 11.432 4.70638 12.8459 6.35306 14.3199ZM6.35306 16C4.23483 14.1645 2.64643 12.4563 1.58786 10.8755C0.529287 9.29462 0 7.84326 0 6.52139C0 4.57906 0.628291 3.00658 1.88487 1.80395C3.14145 0.601316 4.63085 0 6.35306 0C8.07526 0 9.56466 0.601316 10.8212 1.80395C12.0778 3.00658 12.7061 4.57906 12.7061 6.52139C12.7061 7.84326 12.1768 9.29462 11.1183 10.8755C10.0597 12.4563 8.47128 14.1645 6.35306 16Z" fill="#E3E3E3"/>
</svg>
