<svg width="25" height="24" viewBox="0 0 25 24" fill="none" xmlns="http://www.w3.org/2000/svg">
<path d="M22.5896 24L14.8129 16.2233L17.0425 13.9937L24.8192 21.7704L22.5896 24ZM3.05693 24L0.827318 21.7704L10.6004 11.9973L7.30739 8.71782L6.42855 9.59666L4.86075 8.0153V10.7305L3.98191 11.6093L0 7.62741L0.878839 6.74857H3.59403L2.03436 5.20247L6.06505 1.17178C6.46287 0.773954 6.8937 0.482817 7.35753 0.29837C7.82136 0.113923 8.30373 0.0216989 8.80463 0.0216989C9.30553 0.0216989 9.7879 0.113923 10.2517 0.29837C10.7156 0.482817 11.1464 0.773954 11.5442 1.17178L8.76123 3.95476L10.4158 5.60937L9.537 6.48821L12.83 9.76767L16.2207 6.37705C16.0633 6.09133 15.9485 5.79612 15.8762 5.49141C15.8038 5.18671 15.7677 4.86618 15.7677 4.52983C15.7677 3.26039 16.2053 2.18806 17.0805 1.31284C17.9557 0.437612 19.0281 0 20.2975 0C20.5959 0 20.8811 0.0262201 21.1533 0.0786602C21.4254 0.1311 21.6989 0.218803 21.9738 0.341768L18.7676 3.54791L21.2794 6.05967L24.4856 2.85353C24.623 3.12839 24.7143 3.4019 24.7595 3.67405C24.8047 3.9462 24.8273 4.23146 24.8273 4.52983C24.8273 5.79926 24.3897 6.87159 23.5145 7.74682C22.6393 8.62204 21.5669 9.05966 20.2975 9.05966C19.9611 9.05966 19.6406 9.0271 19.3359 8.962C19.0312 8.8969 18.736 8.77845 18.4503 8.60666L3.05693 24Z" fill="#30C5FF"/>
</svg>
