<svg width="29" height="26" viewBox="0 0 29 26" fill="none" xmlns="http://www.w3.org/2000/svg">
<path d="M14.0996 23.9453C14.2349 23.9453 14.3723 23.9137 14.5119 23.8505C14.6515 23.7873 14.7617 23.7153 14.8425 23.6345L25.7984 12.6786C26.1074 12.3695 26.3401 12.0394 26.4964 11.6881C26.6527 11.3369 26.7309 10.9681 26.7309 10.5818C26.7309 10.1813 26.6527 9.79586 26.4964 9.42531C26.3401 9.05475 26.1074 8.72196 25.7984 8.42692L20.3191 2.94769C20.0241 2.6386 19.7045 2.41249 19.3603 2.26936C19.016 2.12623 18.6437 2.05467 18.2433 2.05467C17.857 2.05467 17.486 2.12623 17.1303 2.26936C16.7747 2.41249 16.4468 2.6386 16.1465 2.94769L15.3614 3.73273L17.8956 6.28795C18.2029 6.58123 18.4299 6.91578 18.5765 7.2916C18.7232 7.66742 18.7965 8.05728 18.7965 8.4612C18.7965 9.29713 18.5172 9.99432 17.9588 10.5528C17.4003 11.1112 16.7031 11.3905 15.8672 11.3905C15.4633 11.3905 15.0721 11.3237 14.6937 11.1903C14.3152 11.0568 13.9793 10.8434 13.6861 10.5501L11.0913 7.97647L5.13791 13.9299C5.03429 14.0335 4.95658 14.1494 4.90477 14.2776C4.85297 14.4058 4.82706 14.5375 4.82706 14.6728C4.82706 14.9257 4.91312 15.1417 5.08522 15.3208C5.25733 15.4999 5.46983 15.5895 5.72272 15.5895C5.85795 15.5895 5.99538 15.5579 6.13499 15.4947C6.27461 15.4314 6.38482 15.3594 6.4656 15.2786L10.9649 10.7794L12.4084 12.2229L7.93021 16.7222C7.8266 16.8258 7.74888 16.9417 7.69708 17.0699C7.64527 17.1981 7.61936 17.3298 7.61936 17.4651C7.61936 17.7092 7.70761 17.9195 7.88411 18.096C8.06061 18.2725 8.27091 18.3607 8.51503 18.3607C8.65026 18.3607 8.78768 18.3291 8.9273 18.2659C9.06692 18.2027 9.17712 18.1307 9.25791 18.0499L13.9153 13.4136L15.3588 14.8571L10.7225 19.5145C10.6277 19.5953 10.5522 19.7055 10.496 19.8451C10.4398 19.9847 10.4117 20.1221 10.4117 20.2574C10.4117 20.5015 10.4999 20.7118 10.6764 20.8883C10.8529 21.0648 11.0632 21.153 11.3073 21.153C11.4426 21.153 11.5743 21.1271 11.7025 21.0753C11.8307 21.0235 11.9466 20.9458 12.0502 20.8422L16.7076 16.2059L18.1511 17.6494L13.4937 22.3068C13.3901 22.4104 13.3124 22.5307 13.2606 22.6677C13.2088 22.8047 13.1829 22.9364 13.1829 23.0628C13.1829 23.3157 13.2769 23.526 13.4648 23.6938C13.6527 23.8615 13.8643 23.9453 14.0996 23.9453ZM14.0786 26C13.3041 26 12.6288 25.7313 12.0528 25.1939C11.4768 24.6565 11.1756 23.9874 11.1493 23.1866C10.3731 23.1339 9.72461 22.8582 9.2039 22.3595C8.6832 21.8607 8.4009 21.2057 8.357 20.3943C7.54564 20.3416 6.88971 20.058 6.38921 19.5435C5.8887 19.0289 5.62089 18.3818 5.58577 17.602C4.77091 17.5493 4.0983 17.2539 3.56794 16.7156C3.03757 16.1774 2.77239 15.4964 2.77239 14.6728C2.77239 14.2688 2.84922 13.8733 3.00289 13.486C3.15655 13.0988 3.38002 12.7586 3.6733 12.4653L11.0913 5.06832L15.1033 9.08026C15.184 9.17509 15.2899 9.25061 15.4207 9.30681C15.5515 9.36301 15.6933 9.39111 15.8461 9.39111C16.0955 9.39111 16.3107 9.30857 16.4915 9.14348C16.6724 8.9784 16.7629 8.76239 16.7629 8.49544C16.7629 8.34265 16.7348 8.20084 16.6786 8.07C16.6224 7.93916 16.5469 7.83335 16.452 7.75256L11.6472 2.94769C11.3521 2.6386 11.0303 2.41249 10.6817 2.26936C10.3331 2.12623 9.95858 2.05467 9.55818 2.05467C9.17181 2.05467 8.80521 2.12623 8.45837 2.26936C8.11152 2.41249 7.78356 2.6386 7.47447 2.94769L2.97518 7.46805C2.72581 7.71743 2.52165 8.01203 2.36271 8.35185C2.20378 8.69168 2.11026 9.03808 2.08216 9.39108C2.05407 9.68261 2.06724 9.97106 2.12168 10.2564C2.17612 10.5418 2.27183 10.8101 2.40882 11.0612L0.896788 12.5732C0.587708 12.1272 0.355019 11.6275 0.198722 11.0744C0.0424246 10.5212 -0.0216754 9.96007 0.00642209 9.39108C0.0345195 8.76062 0.176768 8.15166 0.433168 7.56423C0.689567 6.97679 1.0487 6.45214 1.51057 5.99026L5.99669 1.50415C6.50949 1.0054 7.06751 0.630022 7.67074 0.378013C8.27398 0.126004 8.90752 0 9.57135 0C10.2352 0 10.8665 0.126004 11.4654 0.378013C12.0642 0.630022 12.613 1.0054 13.1118 1.50415L13.8968 2.28919L14.6818 1.50415C15.1946 1.0054 15.7505 0.630022 16.3493 0.378013C16.9482 0.126004 17.5795 0 18.2433 0C18.9072 0 19.5407 0.126004 20.1439 0.378013C20.7472 0.630022 21.2982 1.0054 21.7969 1.50415L27.2419 6.94913C27.7406 7.44788 28.1226 8.01556 28.3878 8.65217C28.653 9.28878 28.7856 9.939 28.7856 10.6028C28.7856 11.2667 28.653 11.898 28.3878 12.4968C28.1226 13.0957 27.7406 13.6445 27.2419 14.1432L16.286 25.078C15.984 25.3801 15.6437 25.6093 15.2653 25.7656C14.8868 25.9219 14.4913 26 14.0786 26Z" fill="#30C5FF"/>
</svg>
