<svg width="30" height="30" viewBox="0 0 30 30" fill="none" xmlns="http://www.w3.org/2000/svg">
<path d="M6.82128 23.3824H9.46828V15H6.82128V23.3824ZM20.5317 23.3824H23.1787V6.17643H20.5317V23.3824ZM13.6765 23.3824H16.3235V18.5294H13.6765V23.3824ZM13.6765 15H16.3235V11.4706H13.6765V15ZM3.19003 30C2.29863 30 1.54411 29.6912 0.926466 29.0735C0.308822 28.4559 0 27.7014 0 26.81V3.19003C0 2.29863 0.308822 1.54411 0.926466 0.926466C1.54411 0.308822 2.29863 0 3.19003 0H26.81C27.7014 0 28.4559 0.308822 29.0735 0.926466C29.6912 1.54411 30 2.29863 30 3.19003V26.81C30 27.7014 29.6912 28.4559 29.0735 29.0735C28.4559 29.6912 27.7014 30 26.81 30H3.19003ZM3.19003 27.353H26.81C26.9457 27.353 27.0702 27.2964 27.1833 27.1833C27.2964 27.0702 27.353 26.9457 27.353 26.81V3.19003C27.353 3.05428 27.2964 2.92983 27.1833 2.8167C27.0702 2.70357 26.9457 2.64701 26.81 2.64701H3.19003C3.05428 2.64701 2.92983 2.70357 2.8167 2.8167C2.70357 2.92983 2.64701 3.05428 2.64701 3.19003V26.81C2.64701 26.9457 2.70357 27.0702 2.8167 27.1833C2.92983 27.2964 3.05428 27.353 3.19003 27.353Z" fill="#30C5FF"/>
</svg>
